PathFileType	4	(X/Y/Z)	Patient4_TMGait_0pt7_01_right_27.trc.trc
DataRate	CameraRate	NumFrames	NumMarkers	Units	OrigDataRate	OrigDataStartFrame	OrigNumFrames
86.956521739131	86.956521739131	4	33	mm	86.956521739131	36	       141
Frame#	Time	Sacral			L.Shoulder			Chest			R.Shoulder			Neck			R.ASIS			L.ASIS			R.Thigh.Superior			R.Thigh.Lateral			R.Thigh.Inferior			R.Patella			L.Thigh.Superior			L.Thigh.Lateral			L.Thigh.Inferior			L.Patella			L.Shank.Superior			L.Shank.Lateral			L.Shank.Inferior			R.Shank.Superior			R.Shank.Lateral			R.Shank.Inferior			R.Heel			R.Midfoot.Superior			R.Midfoot.Lateral			R.Toe			L.Heel			L.Midfoot.Lateral			L.Midfoot.Superior			L.Toe			L.Elbow			L.Wrist			R.Elbow			R.Wrist			
		X1	Y1	Z1	X2	Y2	Z2	X3	Y3	Z3	X4	Y4	Z4	X5	Y5	Z5	X6	Y6	Z6	X7	Y7	Z7	X8	Y8	Z8	X9	Y9	Z9	X10	Y10	Z10	X11	Y11	Z11	X12	Y12	Z12	X13	Y13	Z13	X14	Y14	Z14	X15	Y15	Z15	X16	Y16	Z16	X17	Y17	Z17	X18	Y18	Z18	X19	Y19	Z19	X20	Y20	Z20	X21	Y21	Z21	X22	Y22	Z22	X23	Y23	Z23	X24	Y24	Z24	X25	Y25	Z25	X26	Y26	Z26	X27	Y27	Z27	X28	Y28	Z28	X29	Y29	Z29	X30	Y30	Z30	X31	Y31	Z31	X32	Y32	Z32	X33	Y33	Z33	

36	30.952500000000	806.146260615455	1003.494891176926	497.661205386641	993.578198290203	1428.564710993790	308.580989344506	1086.870592431711	1358.894778724535	476.132598249420	996.035248080033	1439.663230289507	642.470297794301	992.347422855816	1491.228561099108	461.117099794308	1032.745791005857	940.063456201877	619.041074240570	1022.463537435516	959.673959999265	342.324228532305	1092.495611310859	750.699257830015	592.493267555465	1023.214124881134	636.932691083489	658.491611247587	1105.804701493162	590.049181834014	580.188117566912	1116.599346389997	503.349704574262	591.016347714699	1031.351776688327	732.543484791451	360.106923133693	919.295858804885	633.773820317751	297.985718522274	993.024369458522	536.947619011001	349.178380220150	976.983401304883	457.206852195390	347.723179419077	913.963195029132	402.233148551721	344.200247191961	776.932198354756	344.940064393678	300.439166613274	778.485412902111	215.486752962031	358.295571765083	1098.394032901232	413.524378053923	602.085516037718	1037.324025202196	305.433852001734	667.138365695550	1091.254921959487	213.020539692978	609.242987555055	974.598404596512	43.093172837331	583.741121353881	1143.983900026526	98.657855230159	618.371183521449	1057.923721813242	36.960525886521	657.707758805819	1265.554372167399	48.278209591142	646.854915880950	597.491205031936	118.884918536852	401.148193324399	663.083967081334	78.871484704938	325.344042914297	763.412698814772	110.413405652601	344.639551298904	862.195124323762	34.783095801885	328.689861931153	1001.123898751294	1092.613421838484	168.383391626259	1251.042614790765	1066.066627472462	212.095730398774	860.905002318744	1130.173092200744	772.692761136464	890.771250382220	870.842221527351	805.510548736085	
37	30.964000000000	805.392860030613	1005.025520501706	500.930067517503	992.378929745697	1429.864760058300	311.104496123577	1086.650174414746	1360.015234646511	477.998132879054	997.042415369487	1440.722603541907	644.943944621624	992.028988522962	1492.338096170451	463.803329328264	1032.456466623930	941.120286594514	621.092682676782	1021.712113382270	960.904438407417	344.511484408588	1089.505859456538	749.748514818680	595.690377401914	1017.807452174087	637.087470337793	660.674611747573	1099.854080667151	589.292973355695	582.271559987957	1109.361801043218	502.964912560555	592.276033535850	1035.050614145852	734.453576208803	362.048890671903	926.607920870678	633.030389077223	299.287357846924	1003.360949509068	537.533993874541	350.073954335415	988.144954004479	456.438737513678	347.597301205011	922.754471963435	401.983712231321	344.493084203366	783.682666315114	349.696915978050	300.886219053372	780.869061909331	220.182703737937	358.015270972400	1091.214705252140	413.369212388985	603.331612596211	1029.970310274716	305.294347988000	668.155577790283	1083.590229611296	212.892969211852	609.846584573969	966.621693626881	43.040994445436	583.926985202131	1136.059111672220	98.654554476814	618.697406798723	1049.919478361690	36.870426318311	657.909211425179	1257.594246256335	48.043023268909	647.095619292279	596.596457189703	132.769936057516	400.761744461730	659.628574293754	88.627907861938	325.153583241367	761.461675712573	114.192727388966	344.164882731183	854.545494560855	33.491445781659	328.728796234112	993.418967617914	1092.734537193519	172.729004507882	1242.659213320606	1054.742428437303	214.491695032430	868.435678820538	1128.600181897881	777.761335529103	912.420129339244	871.162814087579	809.563430490455	
38	30.975500000000	804.435946603054	1006.314995343054	504.051647931186	990.943251275432	1430.877797566682	313.520164143178	1086.295643532711	1360.862516205173	479.713974996485	997.972631981805	1441.468455314039	647.324511438632	991.550737562282	1493.187043529553	466.427314392520	1031.949876843488	941.916347051690	623.013559336090	1020.679698423204	961.708927092414	346.675916910825	1086.360481322152	748.692224279469	598.952544982622	1012.322225384506	637.143803896794	662.802040999348	1093.869673409168	588.508493060905	584.329513105595	1102.152253857540	502.561868908619	593.554615108736	1038.971467675908	736.404499365306	364.077191918604	934.597239746278	632.271548734275	300.569275712559	1014.289973368783	538.349299155178	351.302866175524	1000.000662564866	455.949847003644	348.025178886659	932.422379139164	401.861757980160	345.108631098020	791.618796665909	354.606210290201	301.305152058336	784.204380679794	225.301894905873	357.946607737683	1084.034091823995	413.163098509901	604.533188345399	1022.610891021222	305.098283714004	669.120589687884	1075.910321272355	212.713823238307	610.403418324812	958.563861050539	42.985668148933	584.071205972618	1128.115187835261	98.589972527865	618.979185167166	1041.844703578248	36.756781696128	658.065233916965	1249.587545781429	47.665346327766	647.248214076356	597.008670619945	147.697799673975	400.324792768019	657.249998204219	99.529062987312	324.907648254433	760.289537035420	118.702606604587	343.883537024505	847.167714792369	32.081833968804	328.775043235966	985.727323434721	1092.709879598228	176.936418054944	1233.656607833589	1042.486699698082	216.730674073337	876.389865449864	1126.816730171282	782.910359304390	934.891294761322	872.090199967551	813.286795932616	
39	30.987000000000	803.262008109038	1007.357259501919	506.976454464677	989.295255309450	1431.607614717643	315.797663793188	1085.801553728807	1361.415164808832	481.258946965138	998.814570303849	1441.893926398531	649.581150755776	990.938067897156	1493.781204683223	468.949514162984	1031.194303658210	942.484014206438	624.822701414855	1019.285017955017	962.060407991154	348.817240439774	1083.134636284882	747.638636610099	602.109738371883	1006.978156889695	637.168433016844	664.862642053165	1088.011826437480	587.745420877605	586.313053635663	1095.120730765628	502.158722068086	594.860976838426	1042.979096660965	738.446371989823	366.222331765398	943.106209841580	631.618524251544	301.847443278426	1025.584836041177	539.497832473836	352.901855340765	1012.364422168805	455.848018149573	349.014312385015	942.803154174745	401.964258112580	346.055097180168	800.585039220117	359.657019168630	301.728750761869	788.468110663241	230.801491742777	358.097159653047	1076.977108382794	412.921332502972	605.686441770220	1015.366713946773	304.881476478398	670.062445944196	1068.286145865502	212.500644712139	610.920746910702	950.453182629331	42.939866757612	584.202602907177	1120.165140336151	98.486659692740	619.233521365840	1033.726695460612	36.638726531902	658.203194627743	1241.554583411855	47.194699392248	647.347220524780	598.775320958143	163.323625363514	399.837910141198	656.102332699401	111.340283223459	324.599761244943	760.015180561223	123.913104772723	343.788366470756	840.316808526906	30.693919002003	328.823348687341	978.100121131591	1092.491991044812	181.023352193891	1223.975591327845	1029.334532484277	218.792689744066	884.826339963494	1124.834732613142	788.088334557363	958.087805766724	873.703142057168	816.586002564053	
